<svg xmlns="http://www.w3.org/2000/svg" width="84.761" height="96.87" viewBox="0 0 84.761 96.87">
  <defs>
    <style>
      .cls-1 {
        fill: #404348;
        fill-rule: evenodd;
      }
    </style>
  </defs>
  <path id="Path_49" data-name="Path 49" class="cls-1" d="M42.381,48.435A12.109,12.109,0,1,1,30.272,60.544,12.144,12.144,0,0,1,42.381,48.435Zm0-36.326A12.144,12.144,0,0,0,30.272,24.217H54.489A12.144,12.144,0,0,0,42.381,12.109ZM72.652,96.87H12.109A12.144,12.144,0,0,1,0,84.761V36.326A12.144,12.144,0,0,1,12.109,24.217h6.054a24.217,24.217,0,0,1,48.435,0h6.054A12.144,12.144,0,0,1,84.761,36.326V84.761A12.144,12.144,0,0,1,72.652,96.87Z"/>
</svg>
