<svg xmlns="http://www.w3.org/2000/svg" width="97.304" height="73.057" viewBox="0 0 97.304 73.057">
  <defs>
    <style>
      .cls-1 {
        fill: #404348;
      }
    </style>
  </defs>
  <g id="Group_37496" data-name="Group 37496" transform="translate(-1139 -1909)">
    <path id="Path_178" data-name="Path 178" class="cls-1" d="M0,66.444V5.983A6.217,6.217,0,0,1,1.889,1.575,5.986,5.986,0,0,1,5.983,0H40.937a3.576,3.576,0,0,1,2.519.945,4.233,4.233,0,0,1,1.889,2.2l3.149,8.817H91.006a6.217,6.217,0,0,1,4.409,1.889A5.718,5.718,0,0,1,97.3,18.264V66.759a6.217,6.217,0,0,1-1.889,4.409,5.717,5.717,0,0,1-4.409,1.889H5.983a6.217,6.217,0,0,1-4.409-1.889A8.485,8.485,0,0,1,0,66.444Z" transform="translate(1139 1909)"/>
  </g>
</svg>
