<svg xmlns="http://www.w3.org/2000/svg" width="91.359" height="91.359" viewBox="0 0 91.359 91.359">
  <defs>
    <style>
      .cls-1 {
        fill: #404348;
      }
    </style>
  </defs>
  <g id="Group_37498" data-name="Group 37498" transform="translate(-202 -1900)">
    <path id="Path_99" data-name="Path 99" class="cls-1" d="M91.359,83.315,72.4,64.354a39.341,39.341,0,0,0,8.044-24.133A39.974,39.974,0,0,0,40.221,0,39.974,39.974,0,0,0,0,40.221,39.974,39.974,0,0,0,40.221,80.442,39.341,39.341,0,0,0,64.354,72.4L83.315,91.359ZM11.492,40.221A28.45,28.45,0,0,1,40.221,11.492,28.45,28.45,0,0,1,68.95,40.221,28.45,28.45,0,0,1,40.221,68.95,28.45,28.45,0,0,1,11.492,40.221Z" transform="translate(202 1900)"/>
  </g>
</svg>
