<svg id="אייקון-בקרה_חודשית_טרום_דיווח_למניעת_שגויים" data-name="אייקון-בקרה חודשית טרום דיווח למניעת שגויים" xmlns="http://www.w3.org/2000/svg" width="40" height="40" viewBox="0 0 40 40">
  <defs>
    <style>
      .cls-1 {
        fill: #00cdcd;
      }
    </style>
  </defs>
  <g id="Group_36950" data-name="Group 36950">
    <path id="Path_39343" data-name="Path 39343" class="cls-1" d="M453.129,507.452H417V501h36.129Zm-34.839-1.29h33.548V502.29H418.29Z" transform="translate(-417 -501)"/>
  </g>
  <g id="Group_36951" data-name="Group 36951" transform="translate(2.581 2.581)">
    <rect id="Rectangle_2667" data-name="Rectangle 2667" class="cls-1" width="1" height="1" transform="translate(0.419 0.419)"/>
  </g>
  <g id="Group_36952" data-name="Group 36952" transform="translate(5.161 2.581)">
    <rect id="Rectangle_2668" data-name="Rectangle 2668" class="cls-1" width="1" height="1" transform="translate(-0.161 0.419)"/>
  </g>
  <g id="Group_36953" data-name="Group 36953" transform="translate(7.742 2.581)">
    <rect id="Rectangle_2669" data-name="Rectangle 2669" class="cls-1" width="1" height="1" transform="translate(0.258 0.419)"/>
  </g>
  <g id="Group_36954" data-name="Group 36954" transform="translate(0 7.742)">
    <path id="Path_39344" data-name="Path 39344" class="cls-1" d="M426.677,540.742H417V513h1.29v26.452h8.387Z" transform="translate(-417 -513)"/>
  </g>
  <g id="Group_36955" data-name="Group 36955" transform="translate(34.839 7.742)">
    <rect id="Rectangle_2670" data-name="Rectangle 2670" class="cls-1" width="1" height="2" transform="translate(0.161 0.258)"/>
  </g>
  <g id="Group_36956" data-name="Group 36956" transform="translate(8.387 8.387)">
    <path id="Path_39345" data-name="Path 39345" class="cls-1" d="M458.14,526.983A12.825,12.825,0,0,0,456.2,522.3l1.6-2.4-2.737-2.737-2.4,1.6a12.823,12.823,0,0,0-4.681-1.937L447.419,514h-3.871l-.566,2.828a12.823,12.823,0,0,0-4.681,1.937l-2.4-1.6-2.737,2.737,1.6,2.4a12.824,12.824,0,0,0-1.937,4.681l-2.828.566v3.871l2.828.566a12.824,12.824,0,0,0,1.937,4.681l-1.6,2.4L435.9,541.8l2.4-1.6a12.824,12.824,0,0,0,4.681,1.937l.566,2.828h3.871l.566-2.828a12.824,12.824,0,0,0,4.681-1.937l2.4,1.6,2.737-2.737-1.6-2.4a12.825,12.825,0,0,0,1.937-4.681l2.828-.566v-3.871Zm-12.656,12.824a10.323,10.323,0,1,1,10.323-10.323A10.322,10.322,0,0,1,445.484,539.806Z" transform="translate(-430 -514)"/>
  </g>
  <g id="Group_36957" data-name="Group 36957" transform="translate(11.097 16.329)">
    <path id="Path_39346" data-name="Path 39346" class="cls-1" d="M449.438,549.981h-4.928l-.587-2.93a13.389,13.389,0,0,1-4.126-1.708L437.311,547l-3.11-3.111.912-.912,2.363,2.363,2.317-1.544.359.241a12.123,12.123,0,0,0,4.446,1.84l.424.083.546,2.732h2.814l.546-2.732.424-.083a12.123,12.123,0,0,0,4.446-1.84l.359-.241,2.317,1.544,1.989-1.989-1.545-2.317.241-.359a12.135,12.135,0,0,0,1.84-4.446l.083-.424,2.732-.546v-2.814l-2.732-.546-.083-.424a12.135,12.135,0,0,0-1.84-4.446l1.071-.719a13.379,13.379,0,0,1,1.945,4.492l2.93.586v4.928l-2.93.586a13.384,13.384,0,0,1-1.708,4.127l1.657,2.486L456.637,547l-2.485-1.657a13.386,13.386,0,0,1-4.127,1.708Z" transform="translate(-434.201 -526.31)"/>
  </g>
  <g id="Group_36958" data-name="Group 36958" transform="translate(7.742 7.742)">
    <path id="Path_39347" data-name="Path 39347" class="cls-1" d="M433.875,536.671a13.381,13.381,0,0,1-1.945-4.492l-2.93-.586v-4.928l2.93-.586a13.384,13.384,0,0,1,1.708-4.127l-1.657-2.486,3.485-3.485,2.486,1.657a13.388,13.388,0,0,1,4.126-1.708l.587-2.93h4.928l.586,2.93a13.385,13.385,0,0,1,4.127,1.708l2.485-1.657,3.111,3.111-.912.912-2.363-2.363-2.317,1.544-.359-.241a12.123,12.123,0,0,0-4.446-1.84l-.424-.083-.546-2.732h-2.814l-.546,2.732-.424.083a12.123,12.123,0,0,0-4.446,1.84l-.359.241-2.317-1.544-1.989,1.989,1.544,2.317-.241.359a12.125,12.125,0,0,0-1.84,4.446l-.083.424-2.732.546v2.814l2.732.546.083.424a12.124,12.124,0,0,0,1.84,4.446Z" transform="translate(-429 -513)"/>
  </g>
  <g id="Group_36959" data-name="Group 36959" transform="translate(12.903 12.903)">
    <path id="Path_39348" data-name="Path 39348" class="cls-1" d="M447.968,542.935a10.968,10.968,0,1,1,10.968-10.968A10.98,10.98,0,0,1,447.968,542.935Zm0-20.645a9.677,9.677,0,1,0,9.677,9.677A9.688,9.688,0,0,0,447.968,522.29Z" transform="translate(-437 -521)"/>
  </g>
  <g id="Group_36960" data-name="Group 36960" transform="translate(23.226 10.323)">
    <rect id="Rectangle_2671" data-name="Rectangle 2671" class="cls-1" width="2" height="2" transform="translate(-0.226 -0.323)"/>
  </g>
  <g id="Group_36961" data-name="Group 36961" transform="translate(13.834 13.834)">
    <rect id="Rectangle_2672" data-name="Rectangle 2672" class="cls-1" width="1.291" height="1.29" transform="translate(0 0.913) rotate(-44.998)"/>
  </g>
  <g id="Group_36962" data-name="Group 36962" transform="translate(10.323 23.226)">
    <rect id="Rectangle_2673" data-name="Rectangle 2673" class="cls-1" width="2" height="2" transform="translate(-0.323 -0.226)"/>
  </g>
  <g id="Group_36963" data-name="Group 36963" transform="translate(13.835 32.083)">
    <rect id="Rectangle_2674" data-name="Rectangle 2674" class="cls-1" width="1.29" height="1.291" transform="translate(0 0.913) rotate(-45.02)"/>
  </g>
  <g id="Group_36964" data-name="Group 36964" transform="translate(23.226 36.129)">
    <rect id="Rectangle_2675" data-name="Rectangle 2675" class="cls-1" width="2" height="1" transform="translate(-0.226 -0.129)"/>
  </g>
  <g id="Group_36965" data-name="Group 36965" transform="translate(32.082 32.083)">
    <rect id="Rectangle_2676" data-name="Rectangle 2676" class="cls-1" width="1.291" height="1.29" transform="translate(0 0.913) rotate(-45.002)"/>
  </g>
  <g id="Group_36966" data-name="Group 36966" transform="translate(36.129 23.226)">
    <rect id="Rectangle_2677" data-name="Rectangle 2677" class="cls-1" width="1" height="2" transform="translate(-0.129 -0.226)"/>
  </g>
  <g id="Group_36967" data-name="Group 36967" transform="translate(32.082 13.834)">
    <rect id="Rectangle_2678" data-name="Rectangle 2678" class="cls-1" width="1.29" height="1.291" transform="translate(0 0.912) rotate(-45)"/>
  </g>
  <g id="Group_36968" data-name="Group 36968" transform="translate(18.71 16.839)">
    <path id="Path_39349" data-name="Path 39349" class="cls-1" d="M453.742,544.455h-1.29v-8.59l.368-.175a3.859,3.859,0,0,0,.923-6.37v1.932l-2.581,1.721-2.581-1.721v-1.932a3.859,3.859,0,0,0,.923,6.37l.368.175v8.59h-1.29v-7.794a5.154,5.154,0,0,1,.368-9.123l.923-.438v3.461l1.29.86,1.29-.86V527.1l.923.438a5.154,5.154,0,0,1,.368,9.123Z" transform="translate(-446 -527.1)"/>
  </g>
  <g id="Group_36969" data-name="Group 36969" transform="translate(5.161 7.742)">
    <path id="Path_39350" data-name="Path 39350" class="cls-1" d="M436.613,515.581h-1.29v-1.29H425V513h11.613Z" transform="translate(-425 -513)"/>
  </g>
  <g id="Group_36970" data-name="Group 36970" transform="translate(2.581 7.742)">
    <path id="Path_39351" data-name="Path 39351" class="cls-1" d="M428.742,523.323H421V513h1.29v9.032h6.452Z" transform="translate(-421 -513)"/>
  </g>
</svg>
