<svg id="אייקון-מוקד_פניות_טלפוני_לעובדים" data-name="אייקון-מוקד פניות טלפוני לעובדים" xmlns="http://www.w3.org/2000/svg" width="39.059" height="39.059" viewBox="0 0 39.059 39.059">
  <defs>
    <style>
      .cls-1 {
        fill: #00d5d5;
      }
    </style>
  </defs>
  <g id="Group_37463" data-name="Group 37463" transform="translate(-1440 -1315)">
    <g id="Group_36448" data-name="Group 36448" transform="translate(1459.982 1332.462)">
      <g id="Group_36447" data-name="Group 36447">
        <g id="Group_36446" data-name="Group 36446">
          <path id="Path_38546" data-name="Path 38546" class="cls-1" d="M11.875,10,10,8.121a.977.977,0,0,0-1.379.026l-.945.947-.187-.1A9.406,9.406,0,0,1,5.215,7.343,9.479,9.479,0,0,1,3.567,5.06c-.035-.063-.069-.125-.1-.183L4.1,4.243l.312-.313a.981.981,0,0,0,.025-1.382L2.561.666A.976.976,0,0,0,1.182.692l-.529.533.014.014a3.066,3.066,0,0,0-.436.77,3.2,3.2,0,0,0-.194.781C-.21,4.85.729,6.731,3.276,9.283c3.521,3.528,6.358,3.262,6.48,3.249a3.164,3.164,0,0,0,.782-.2A3.045,3.045,0,0,0,11.3,11.9l.012.01.536-.526A.983.983,0,0,0,11.875,10Z" transform="translate(0 -0.394)"/>
        </g>
      </g>
    </g>
    <g id="Group_37151" data-name="Group 37151" transform="translate(1440 1315)">
      <g id="Group_37124" data-name="Group 37124" transform="translate(0 32.76)">
        <path id="Path_39421" data-name="Path 39421" class="cls-1" d="M68.909,175.3H36.15A3.154,3.154,0,0,1,33,172.15V169H44.34v1.26H34.26v1.89a1.892,1.892,0,0,0,1.89,1.89h32.76a1.892,1.892,0,0,0,1.89-1.89v-1.89H60.72V169h11.34v3.15A3.154,3.154,0,0,1,68.909,175.3Z" transform="translate(-33 -169)"/>
      </g>
      <g id="Group_37125" data-name="Group 37125" transform="translate(12.6 32.76)">
        <path id="Path_39422" data-name="Path 39422" class="cls-1" d="M64.97,172.78H54.89A1.892,1.892,0,0,1,53,170.89V169H66.86v1.89A1.892,1.892,0,0,1,64.97,172.78Zm-10.71-2.52v.63a.63.63,0,0,0,.63.63H64.97a.63.63,0,0,0,.63-.63v-.63Z" transform="translate(-53 -169)"/>
      </g>
      <g id="Group_37126" data-name="Group 37126" transform="translate(3.665 35.429)">
        <rect id="Rectangle_2754" data-name="Rectangle 2754" class="cls-1" width="1" height="1" transform="translate(0.373 -0.37)"/>
      </g>
      <g id="Group_37127" data-name="Group 37127" transform="translate(6.388 35.429)">
        <rect id="Rectangle_2755" data-name="Rectangle 2755" class="cls-1" width="1" height="1" transform="translate(-0.349 -0.37)"/>
      </g>
      <g id="Group_37128" data-name="Group 37128" transform="translate(9.11 35.429)">
        <rect id="Rectangle_2756" data-name="Rectangle 2756" class="cls-1" width="1" height="1" transform="translate(-0.072 -0.37)"/>
      </g>
      <g id="Group_37129" data-name="Group 37129" transform="translate(31.5 6.3)">
        <path id="Path_39423" data-name="Path 39423" class="cls-1" d="M90.56,152.2H89.3V130.15a1.892,1.892,0,0,0-1.89-1.89H83V127h4.41a3.154,3.154,0,0,1,3.15,3.15Z" transform="translate(-83 -127)"/>
      </g>
      <g id="Group_37130" data-name="Group 37130" transform="translate(0 6.3)">
        <path id="Path_39424" data-name="Path 39424" class="cls-1" d="M34.26,152.2H33V130.15A3.154,3.154,0,0,1,36.15,127h1.89v1.26H36.15a1.892,1.892,0,0,0-1.89,1.89Z" transform="translate(-33 -127)"/>
      </g>
      <g id="Group_37131" data-name="Group 37131" transform="translate(31.5 8.82)">
        <path id="Path_39425" data-name="Path 39425" class="cls-1" d="M88.04,153.68H86.78V132.26H83V131h3.78a1.262,1.262,0,0,1,1.26,1.26Z" transform="translate(-83 -131)"/>
      </g>
      <g id="Group_37132" data-name="Group 37132" transform="translate(2.52 8.82)">
        <path id="Path_39426" data-name="Path 39426" class="cls-1" d="M38.26,153.68H37V132.26A1.262,1.262,0,0,1,38.26,131h1.26v1.26H38.26Z" transform="translate(-37 -131)"/>
      </g>
      <g id="Group_37133" data-name="Group 37133" transform="translate(6.3 0)">
        <path id="Path_39427" data-name="Path 39427" class="cls-1" d="M66.94,123.3H43V117H66.94Zm-22.68-1.26H65.68v-3.78H44.26Z" transform="translate(-43 -117)"/>
      </g>
      <g id="Group_37134" data-name="Group 37134" transform="translate(6.3 7.56)">
        <path id="Path_39428" data-name="Path 39428" class="cls-1" d="M51.82,147.9H43V129h1.26v17.64h7.56Z" transform="translate(-43 -129)"/>
      </g>
      <g id="Group_37135" data-name="Group 37135" transform="translate(29.076 7.295)">
        <rect id="Rectangle_2757" data-name="Rectangle 2757" class="cls-1" width="1" height="3" transform="translate(-0.038 -0.236)"/>
      </g>
      <g id="Group_37136" data-name="Group 37136" transform="translate(16.38 11.34)">
        <path id="Path_39429" data-name="Path 39429" class="cls-1" d="M76.64,155.16H59V141.93h1.26V153.9H75.38V136.26H64.04v4.41H59v-1.521L63.149,135H76.64ZM60.521,139.41H62.78v-2.259Z" transform="translate(-59 -135)"/>
      </g>
      <g id="Group_37142" data-name="Group 37142" transform="translate(10.11 2.758)">
        <rect id="Rectangle_2760" data-name="Rectangle 2760" class="cls-1" width="1" height="1" transform="translate(-0.072 0.302)"/>
      </g>
      <g id="Group_37143" data-name="Group 37143" transform="translate(11.925 2.758)">
        <rect id="Rectangle_2761" data-name="Rectangle 2761" class="cls-1" width="2" height="1" transform="translate(0.113 0.302)"/>
      </g>
      <g id="Group_37144" data-name="Group 37144" transform="translate(14.648 2.758)">
        <rect id="Rectangle_2762" data-name="Rectangle 2762" class="cls-1" width="1" height="1" transform="translate(0.39 0.302)"/>
      </g>
      <g id="Group_37145" data-name="Group 37145" transform="translate(11.34 7.56)">
        <path id="Path_39433" data-name="Path 39433" class="cls-1" d="M63.6,131.52H62.34v-1.26H51V129H63.6Z" transform="translate(-51 -129)"/>
      </g>
      <g id="Group_37146" data-name="Group 37146" transform="translate(8.82 7.56)">
        <path id="Path_39434" data-name="Path 39434" class="cls-1" d="M53.3,137.82H47V129h1.26v7.56H53.3Z" transform="translate(-47 -129)"/>
      </g>
      <g id="Group_37147" data-name="Group 37147" transform="translate(10.925 10.018)">
        <rect id="Rectangle_2763" data-name="Rectangle 2763" class="cls-1" width="7" height="1" transform="translate(0.113 0.042)"/>
      </g>
      <g id="Group_37148" data-name="Group 37148" transform="translate(10.925 12.741)">
        <rect id="Rectangle_2764" data-name="Rectangle 2764" class="cls-1" width="5" height="1" transform="translate(0.113 0.319)"/>
      </g>
      <g id="Group_37149" data-name="Group 37149" transform="translate(8.82 17.64)">
        <path id="Path_39435" data-name="Path 39435" class="cls-1" d="M53.3,151.3H47V145h6.3v1.26H48.26v3.78H53.3Z" transform="translate(-47 -145)"/>
      </g>
      <g id="Group_37150" data-name="Group 37150" transform="translate(10.925 20.001)">
        <rect id="Rectangle_2765" data-name="Rectangle 2765" class="cls-1" width="4" height="2" transform="translate(0.113 0.059)"/>
      </g>
    </g>
  </g>
</svg>
