<svg xmlns="http://www.w3.org/2000/svg" width="38.5" height="39.966" viewBox="0 0 38.5 39.966">
  <defs>
    <style>
      .cls-1, .cls-2 {
        fill: #00d0d0;
      }

      .cls-2 {
        stroke: #00d0d0;
      }

      .cls-3 {
        fill: #38ada9;
      }

      .cls-4 {
        fill: #00cfcf;
      }

      .cls-5 {
        fill: none;
      }

      .cls-6 {
        fill: #f5f5f6;
      }
    </style>
  </defs>
  <g id="אייקון-המצאת_מבני_פוליסות_העובדים_והתאמת_הדיווח" data-name="אייקון-המצאת מבני פוליסות העובדים והתאמת הדיווח" transform="translate(0.5)">
    <g id="Group_37425" data-name="Group 37425">
      <path id="Path_39571" data-name="Path 39571" class="cls-1" d="M259.084,314.741H225V309h34.084Zm-32.844-1.148h31.6v-3.445h-31.6Z" transform="translate(-225 -309)"/>
    </g>
    <g id="Group_37426" data-name="Group 37426" transform="translate(2.125 1.848)">
      <rect id="Rectangle_2887" data-name="Rectangle 2887" class="cls-1" width="1.062" height="2.125" transform="translate(0)"/>
    </g>
    <g id="Group_37427" data-name="Group 37427" transform="translate(4.249 1.848)">
      <rect id="Rectangle_2888" data-name="Rectangle 2888" class="cls-1" width="2.125" height="2.125" transform="translate(0)"/>
    </g>
    <g id="Group_37428" data-name="Group 37428" transform="translate(7.643 1.848)">
      <rect id="Rectangle_2889" data-name="Rectangle 2889" class="cls-1" width="1.062" height="2.125" transform="translate(0)"/>
    </g>
    <g id="Group_37429" data-name="Group 37429" transform="translate(0 9.273)">
      <path id="Path_39572" data-name="Path 39572" class="cls-2" d="M228.357,343.964H225V321h1.119v21.816h2.238Z" transform="translate(-225 -321)"/>
    </g>
    <g id="Group_37430" data-name="Group 37430" transform="translate(32.868 7.78)">
      <rect id="Rectangle_2890" data-name="Rectangle 2890" class="cls-3" height="14.872" transform="translate(0 0)"/>
    </g>
    <g id="Group_37431" data-name="Group 37431" transform="translate(29.682 32.53)">
      <rect id="Rectangle_2891" data-name="Rectangle 2891" class="cls-1" width="7.436" height="6.374" transform="translate(0)"/>
    </g>
    <g id="Group_37432" data-name="Group 37432" transform="translate(17.593 32.53)">
      <rect id="Rectangle_2892" data-name="Rectangle 2892" class="cls-4" width="8.498" height="6.374" transform="translate(0)"/>
    </g>
    <g id="Group_37433" data-name="Group 37433" transform="translate(6.582 32.53)">
      <rect id="Rectangle_2893" data-name="Rectangle 2893" class="cls-4" width="6.374" height="6.374" transform="translate(0)"/>
    </g>
    <g id="Group_37434" data-name="Group 37434" transform="translate(7.908 6.894)">
      <rect id="Rectangle_2894" data-name="Rectangle 2894" class="cls-4" width="21.246" height="17" transform="translate(0 0)"/>
    </g>
    <g id="Group_37435" data-name="Group 37435" transform="translate(29.048 31.928)">
      <path id="Path_39573" data-name="Path 39573" class="cls-5" d="M279.952,365.038H271V357h8.952Zm-7.833-1.148h6.714v-5.741h-6.714Z" transform="translate(-271 -357)"/>
    </g>
    <g id="Group_37436" data-name="Group 37436" transform="translate(31.806 36.779)">
      <rect id="Rectangle_2895" data-name="Rectangle 2895" class="cls-6" width="1.062" height="1.062" transform="translate(0)"/>
    </g>
    <g id="Group_37438" data-name="Group 37438" transform="translate(33.931 36.779)">
      <rect id="Rectangle_2897" data-name="Rectangle 2897" class="cls-6" width="2.125" height="1.062" transform="translate(0)"/>
    </g>
    <g id="Group_37439" data-name="Group 37439" transform="translate(16.504 31.928)">
      <path id="Path_39574" data-name="Path 39574" class="cls-5" d="M261.071,365.038H251V357h10.071Zm-8.952-1.148h7.833v-5.741h-7.833Z" transform="translate(-251 -357)"/>
    </g>
    <g id="Group_37440" data-name="Group 37440" transform="translate(19.653 36.779)">
      <rect id="Rectangle_2898" data-name="Rectangle 2898" class="cls-6" width="1.062" height="1.062" transform="translate(0)"/>
    </g>
    <g id="Group_37441" data-name="Group 37441" transform="translate(19.687 33.592)">
      <rect id="Rectangle_2899" data-name="Rectangle 2899" class="cls-6" width="3.187" height="2.125" transform="translate(0)"/>
    </g>
    <g id="Group_37442" data-name="Group 37442" transform="translate(21.837 36.779)">
      <rect id="Rectangle_2900" data-name="Rectangle 2900" class="cls-6" width="1.062" height="1.062" transform="translate(0)"/>
    </g>
    <g id="Group_37443" data-name="Group 37443" transform="translate(4.476 31.928)">
      <path id="Path_39575" data-name="Path 39575" class="cls-5" d="M241.952,365.038H233V357h8.952Zm-7.833-1.148h6.714v-5.741h-6.714Z" transform="translate(-233 -357)"/>
    </g>
    <g id="Group_37444" data-name="Group 37444" transform="translate(7.649 36.779)">
      <rect id="Rectangle_2901" data-name="Rectangle 2901" class="cls-6" width="2.125" height="1.062" transform="translate(0)"/>
    </g>
    <g id="Group_37446" data-name="Group 37446" transform="translate(10.918 36.779)">
      <rect id="Rectangle_2903" data-name="Rectangle 2903" class="cls-6" width="1.062" height="1.062" transform="translate(0)"/>
    </g>
    <g id="Group_37447" data-name="Group 37447" transform="translate(16.504 11.973)">
      <path id="Path_39576" data-name="Path 39576" class="cls-5" d="M261.071,335.038H251V327h10.071Zm-8.952-1.148h7.833v-5.741h-7.833Z" transform="translate(-251 -327)"/>
    </g>
    <g id="Group_37448" data-name="Group 37448" transform="translate(17.499 10.907)">
      <rect id="Rectangle_2904" data-name="Rectangle 2904" class="cls-6" width="3.187" height="1.062" transform="translate(0 0)"/>
    </g>
    <g id="Group_37449" data-name="Group 37449" transform="translate(9.862 10.907)">
      <rect id="Rectangle_2905" data-name="Rectangle 2905" class="cls-6" width="5.311" height="1.062" transform="translate(0 0)"/>
    </g>
    <g id="Group_37456" data-name="Group 37456" transform="translate(9.862 14.267)">
      <rect id="Rectangle_2905-2" data-name="Rectangle 2905" class="cls-6" width="5.311" height="1.062" transform="translate(0 0)"/>
    </g>
    <g id="Group_37457" data-name="Group 37457" transform="translate(9.862 16.506)">
      <rect id="Rectangle_2905-3" data-name="Rectangle 2905" class="cls-6" width="5.311" height="1.062" transform="translate(0 0)"/>
    </g>
    <g id="Group_37458" data-name="Group 37458" transform="translate(6.575 18.719)">
      <rect id="Rectangle_2905-4" data-name="Rectangle 2905" class="cls-6" width="5.311" transform="translate(0 0)"/>
    </g>
    <g id="Group_37450" data-name="Group 37450" transform="translate(25.112 10.907)">
      <rect id="Rectangle_2906" data-name="Rectangle 2906" class="cls-6" width="1.062" height="1.062" transform="translate(0 0)"/>
    </g>
    <g id="Group_37451" data-name="Group 37451" transform="translate(20.729 21.258)">
      <rect id="Rectangle_2907" data-name="Rectangle 2907" class="cls-3" height="8.498" transform="translate(0 0)"/>
    </g>
    <g id="Group_37452" data-name="Group 37452" transform="translate(11.705 25.49)">
      <path id="Path_39577" data-name="Path 39577" class="cls-4" d="M262.379,352.019H261.26v-2.871H241.119v2.871H240V348h22.379Z" transform="translate(-240 -348)"/>
    </g>
  </g>
</svg>
