<svg id="אייקון-טפסי_עזר_לצורך_הכנת_161" data-name="אייקון-טפסי עזר לצורך הכנת 161" xmlns="http://www.w3.org/2000/svg" width="34.334" height="39.637" viewBox="0 0 34.334 39.637">
  <defs>
    <style>
      .cls-1 {
        fill: #00cece;
      }
    </style>
  </defs>
  <g id="Group_36827" data-name="Group 36827" transform="translate(3.788 3.03)">
    <path id="Path_39284" data-name="Path 39284" class="cls-1" d="M459.654,417.333V409H440v10.606h27.516v-2.273Z" transform="translate(-440 -409)"/>
  </g>
  <g id="Group_36828" data-name="Group 36828" transform="translate(22.113 29.44)">
    <rect id="Rectangle_2611" data-name="Rectangle 2611" class="cls-1" width="6" height="3" transform="translate(0 0)"/>
  </g>
  <g id="Group_36830" data-name="Group 36830">
    <path id="Path_39285" data-name="Path 39285" class="cls-1" d="M436.561,444.579H435V405h26.073l8.26,8.228V415.1H459.97v-8.549H436.561Zm24.97-31.029h5.919l-5.919-5.9Z" transform="translate(-435 -405)"/>
  </g>
  <g id="Group_36831" data-name="Group 36831" transform="translate(7.061 12.364)">
    <path id="Path_39286" data-name="Path 39286" class="cls-1" d="M470.273,447.273H443v-1.515h25.758V420h1.515Z" transform="translate(-443 -420)"/>
  </g>
  <g id="Group_36834" data-name="Group 36834" transform="translate(3.03 3.03)">
    <path id="Path_39289" data-name="Path 39289" class="cls-1" d="M467.273,420.364H439V409h20.419v1.515H440.571v8.333H465.7v-1.515h1.571Z" transform="translate(-439 -409)"/>
  </g>
  <g id="Group_36835" data-name="Group 36835" transform="translate(17.667 25.805)">
    <path id="Path_39290" data-name="Path 39290" class="cls-1" d="M458.515,445.576H457V438h13.637v1.515H458.515Z" transform="translate(-457 -438)"/>
  </g>
  <g id="Group_36836" data-name="Group 36836" transform="translate(17.667 29.031)">
    <path id="Path_39291" data-name="Path 39291" class="cls-1" d="M470.637,449.576H457v-1.515h12.121V442h1.515Z" transform="translate(-457 -442)"/>
  </g>
  <g id="Group_36837" data-name="Group 36837" transform="translate(3.03 16.376)">
    <path id="Path_39292" data-name="Path 39292" class="cls-1" d="M440.515,430.546H439V426h12.121v1.515H440.515Z" transform="translate(-439 -426)"/>
  </g>
  <g id="Group_36838" data-name="Group 36838" transform="translate(3.03 19.495)">
    <path id="Path_39293" data-name="Path 39293" class="cls-1" d="M451.121,434.546H439V433.03h10.606V430h1.515Z" transform="translate(-439 -430)"/>
  </g>
  <g id="Group_36845" data-name="Group 36845" transform="translate(17.868 16.064)">
    <rect id="Rectangle_2616" data-name="Rectangle 2616" class="cls-1" width="1" height="2" transform="translate(0)"/>
  </g>
  <g id="Group_36846" data-name="Group 36846" transform="translate(20.332 16.064)">
    <rect id="Rectangle_2617" data-name="Rectangle 2617" class="cls-1" width="11" height="2"/>
  </g>
  <g id="Group_36847" data-name="Group 36847" transform="translate(18.332 19.146)">
    <rect id="Rectangle_2618" data-name="Rectangle 2618" class="cls-1" width="13" height="2" transform="translate(0 0)"/>
  </g>
  <g id="Group_36848" data-name="Group 36848" transform="translate(29.332 22.227)">
    <rect id="Rectangle_2619" data-name="Rectangle 2619" class="cls-1" width="2" height="2" transform="translate(0 0)"/>
  </g>
  <g id="Group_36849" data-name="Group 36849" transform="translate(18.075 22.227)">
    <rect id="Rectangle_2620" data-name="Rectangle 2620" class="cls-1" width="10" height="2" transform="translate(0 0)"/>
  </g>
  <g id="Group_36850" data-name="Group 36850" transform="translate(9.673 25.291)">
    <rect id="Rectangle_2621" data-name="Rectangle 2621" class="cls-1" width="6" height="1" transform="translate(0)"/>
  </g>
  <g id="Group_36851" data-name="Group 36851" transform="translate(5.508 25.291)">
    <rect id="Rectangle_2622" data-name="Rectangle 2622" class="cls-1" width="3" height="1" transform="translate(0)"/>
  </g>
  <g id="Group_36852" data-name="Group 36852" transform="translate(5.561 29.398)">
    <rect id="Rectangle_2623" data-name="Rectangle 2623" class="cls-1" width="10" height="1" transform="translate(0 0)"/>
  </g>
  <g id="Group_36853" data-name="Group 36853" transform="translate(5.561 31.473)">
    <rect id="Rectangle_2624" data-name="Rectangle 2624" class="cls-1" width="10" height="2" transform="translate(0 0)"/>
  </g>
  <g id="Group_36854" data-name="Group 36854" transform="translate(13.758 34.637)">
    <rect id="Rectangle_2625" data-name="Rectangle 2625" class="cls-1" width="2" height="2" transform="translate(0)"/>
  </g>
  <g id="Group_36855" data-name="Group 36855" transform="translate(5.535 34.637)">
    <rect id="Rectangle_2626" data-name="Rectangle 2626" class="cls-1" width="7" height="2" transform="translate(0)"/>
  </g>
</svg>
