<svg id="אייקון-העברה_המידע_הפנסיוני_באופן_מאובטח_ובהתאם_לתקנות_הרגולציה" data-name="אייקון-העברה המידע הפנסיוני באופן מאובטח ובהתאם לתקנות הרגולציה" xmlns="http://www.w3.org/2000/svg" width="38.732" height="37.709" viewBox="0 0 38.732 37.709">
  <defs>
    <style>
      .cls-1, .cls-2 {
        fill: #00cfcf;
      }

      .cls-2 {
        fill-rule: evenodd;
      }
    </style>
  </defs>
  <g id="Group_37264" data-name="Group 37264" transform="translate(8.54 25.823)">
    <rect id="Rectangle_2822" data-name="Rectangle 2822" class="cls-1" width="1" height="3" transform="translate(0.192 -0.139)"/>
  </g>
  <g id="Group_37265" data-name="Group 37265" transform="translate(6.383 29.058)">
    <rect id="Rectangle_2823" data-name="Rectangle 2823" class="cls-1" width="7" height="1" transform="translate(0.349 -0.374)"/>
  </g>
  <g id="Group_37266" data-name="Group 37266" transform="translate(0.155 21.341)">
    <path id="Path_39487" data-name="Path 39487" class="cls-1" d="M47.274,252.758h-11.3A2.977,2.977,0,0,1,33,249.784V248H47.274v1.19H34.19v.595a1.786,1.786,0,0,0,1.784,1.784h11.3Z" transform="translate(-33 -248)"/>
  </g>
  <g id="Group_37267" data-name="Group 37267" transform="translate(0.155)">
    <path id="Path_39488" data-name="Path 39488" class="cls-1" d="M34.25,232.627H33V215.974A3.056,3.056,0,0,1,36.126,213H64.882a3.056,3.056,0,0,1,3.126,2.974v2.974h-1.25v-2.974a1.834,1.834,0,0,0-1.875-1.784H36.126a1.834,1.834,0,0,0-1.875,1.784Z" transform="translate(-33 -213)"/>
  </g>
  <g id="Group_37268" data-name="Group 37268" transform="translate(17.32 7.946)">
    <path id="Path_39489" data-name="Path 39489" class="cls-1" d="M74.71,254.738H59V225H80.412v21.412h-1.19V226.19H60.19v27.359h13.68V247.6h6.542v1.436Zm.349-5.948v3.917l3.917-3.917Z" transform="translate(-59 -225)"/>
  </g>
  <g id="Group_37269" data-name="Group 37269" transform="translate(23.726 21.525)">
    <path id="Path_39490" data-name="Path 39490" class="cls-1" d="M76.185,250.6l-5.6-5.6h5.6Zm-2.728-4.41L75,247.728V246.19Z" transform="translate(-71.586 -243)"/>
  </g>
  <g id="Group_37270" data-name="Group 37270" transform="translate(19.259 23.406)">
    <path id="Path_39491" data-name="Path 39491" class="cls-1" d="M66.19,255.74H65a7.869,7.869,0,0,1,6.31-7.7l.115-.023.234,1.166-.115.024A6.678,6.678,0,0,0,66.19,255.74Z" transform="translate(-65 -246.02)"/>
  </g>
  <g id="Group_37276" data-name="Group 37276" transform="translate(0 32.951)">
    <path id="Path_39494" data-name="Path 39494" class="cls-1" d="M84.379,253.758a2.379,2.379,0,1,1,2.379-2.379A2.381,2.381,0,0,1,84.379,253.758Zm0-3.569a1.19,1.19,0,1,0,1.19,1.19A1.192,1.192,0,0,0,84.379,250.19Z" transform="translate(-82 -249)"/>
  </g>
  <g id="Group_37279" data-name="Group 37279" transform="translate(2.534 2.379)">
    <path id="Path_39495" data-name="Path 39495" class="cls-1" d="M48.9,222.948H37V217H59.6v3.569h-1.19V218.19H38.19v3.569H48.9Z" transform="translate(-37 -217)"/>
  </g>
  <g id="Group_37280" data-name="Group 37280" transform="translate(5.227 4.257)">
    <rect id="Rectangle_2826" data-name="Rectangle 2826" class="cls-1" width="3" height="1" transform="translate(-0.495 0.427)"/>
  </g>
  <g id="Group_37281" data-name="Group 37281" transform="translate(8.462 4.257)">
    <rect id="Rectangle_2827" data-name="Rectangle 2827" class="cls-1" width="1" height="1" transform="translate(0.27 0.427)"/>
  </g>
  <g id="Group_37282" data-name="Group 37282" transform="translate(9.618 4.257)">
    <rect id="Rectangle_2828" data-name="Rectangle 2828" class="cls-1" width="1" height="1" transform="translate(1.114 0.427)"/>
  </g>
  <g id="Group_37283" data-name="Group 37283" transform="translate(2.534 9.804)">
    <path id="Path_39496" data-name="Path 39496" class="cls-1" d="M48.9,239.111H37V229h1.19v8.922H48.9Z" transform="translate(-37 -229)"/>
  </g>
  <g id="Group_37284" data-name="Group 37284" transform="translate(4.913 9.76)">
    <path id="Path_39497" data-name="Path 39497" class="cls-1" d="M42.19,234.353H41V229h9.516v1.19H42.19Z" transform="translate(-41 -229)"/>
  </g>
  <g id="Group_37285" data-name="Group 37285" transform="translate(5.227 16.197)">
    <rect id="Rectangle_2829" data-name="Rectangle 2829" class="cls-1" width="10" height="1" transform="translate(-0.495 0.488)"/>
  </g>
  <path id="Path_49" data-name="Path 49" class="cls-2" d="M5.773,6.6A1.649,1.649,0,1,1,4.123,8.247,1.654,1.654,0,0,1,5.773,6.6Zm0-4.948A1.654,1.654,0,0,0,4.123,3.3h3.3A1.654,1.654,0,0,0,5.773,1.649ZM9.9,13.195H1.649A1.654,1.654,0,0,1,0,11.545v-6.6A1.654,1.654,0,0,1,1.649,3.3h.825a3.3,3.3,0,1,1,6.6,0H9.9a1.654,1.654,0,0,1,1.649,1.649v6.6A1.654,1.654,0,0,1,9.9,13.195Z" transform="translate(22.806 9.684)"/>
</svg>
