<svg id="אייקון-טיפול_שוטף_בשגויים_-_מעקב_קבוע_אחר_היזונים_חוזרים" data-name="אייקון-טיפול שוטף בשגויים - מעקב קבוע אחר היזונים חוזרים" xmlns="http://www.w3.org/2000/svg" width="42.977" height="42.925" viewBox="0 0 42.977 42.925">
  <defs>
    <style>
      .cls-1 {
        fill: #00cfcf;
      }
    </style>
  </defs>
  <g id="Group_37376" data-name="Group 37376" transform="translate(10.398 10.398)">
    <path id="Path_39550" data-name="Path 39550" class="cls-1" d="M59.784,324a11.784,11.784,0,1,0,11.784,11.784A11.784,11.784,0,0,0,59.784,324Zm0,19.409a7.625,7.625,0,1,1,7.625-7.625A7.625,7.625,0,0,1,59.784,343.409Z" transform="translate(-48 -324)"/>
  </g>
  <g id="Group_37377" data-name="Group 37377" transform="translate(13.864 13.864)">
    <path id="Path_39551" data-name="Path 39551" class="cls-1" d="M61.318,345.636a8.318,8.318,0,1,1,8.318-8.318A8.327,8.327,0,0,1,61.318,345.636Zm0-15.25a6.932,6.932,0,1,0,6.932,6.932A6.94,6.94,0,0,0,61.318,330.386Z" transform="translate(-53 -329)"/>
  </g>
  <g id="Group_37378" data-name="Group 37378" transform="translate(9.704 9.704)">
    <path id="Path_39552" data-name="Path 39552" class="cls-1" d="M59.477,347.954a12.477,12.477,0,1,1,12.477-12.477A12.492,12.492,0,0,1,59.477,347.954Zm0-23.568a11.091,11.091,0,1,0,11.091,11.091A11.1,11.1,0,0,0,59.477,324.386Z" transform="translate(-47 -323)"/>
  </g>
  <g id="Group_37379" data-name="Group 37379" transform="translate(27.769 28.063)">
    <rect id="Rectangle_2861" data-name="Rectangle 2861" class="cls-1" width="11.091" height="1.386" transform="translate(0 7.842) rotate(-45)"/>
  </g>
  <g id="Group_37380" data-name="Group 37380" transform="translate(27.116 26.978)">
    <path id="Path_39553" data-name="Path 39553" class="cls-1" d="M83.852,363.866a4.1,4.1,0,0,1-2.909-1.2l-8.823-8.742.976-.984,8.823,8.742A2.743,2.743,0,0,0,85.8,357.8L76.934,348.9l.983-.977,8.862,8.908a4.128,4.128,0,0,1-2.927,7.039Z" transform="translate(-72.119 -347.919)"/>
  </g>
  <g id="Group_37381" data-name="Group 37381" transform="translate(18.226 18.976)">
    <path id="Path_39554" data-name="Path 39554" class="cls-1" d="M61.92,344.778l-2.627-2.627.98-.98,1.532,1.532,5.061-6.327,1.083.866Z" transform="translate(-59.293 -336.375)"/>
  </g>
  <g id="Group_37382" data-name="Group 37382">
    <path id="Path_39555" data-name="Path 39555" class="cls-1" d="M70.432,315.932H33V309H70.432Zm-36.045-1.386H69.045v-4.159H34.386Z" transform="translate(-33 -309)"/>
  </g>
  <g id="Group_37383" data-name="Group 37383" transform="translate(0 8.318)">
    <path id="Path_39556" data-name="Path 39556" class="cls-1" d="M59.341,350.113H33V321h1.386v27.727H59.341Z" transform="translate(-33 -321)"/>
  </g>
  <g id="Group_37384" data-name="Group 37384" transform="translate(36.294 8.382)">
    <rect id="Rectangle_2862" data-name="Rectangle 2862" class="cls-1" width="1" height="19" transform="translate(-0.294 -0.382)"/>
  </g>
  <g id="Group_37385" data-name="Group 37385" transform="translate(2.532 2.474)">
    <rect id="Rectangle_2863" data-name="Rectangle 2863" class="cls-1" width="1" height="2" transform="translate(0.468 -0.474)"/>
  </g>
  <g id="Group_37386" data-name="Group 37386" transform="translate(5.908 2.474)">
    <rect id="Rectangle_2864" data-name="Rectangle 2864" class="cls-1" width="1" height="2" transform="translate(0.092 -0.474)"/>
  </g>
  <g id="Group_37387" data-name="Group 37387" transform="translate(8.44 2.474)">
    <rect id="Rectangle_2865" data-name="Rectangle 2865" class="cls-1" width="1" height="2" transform="translate(-0.44 -0.474)"/>
  </g>
  <g id="Group_37388" data-name="Group 37388" transform="translate(2.773 8.318)">
    <path id="Path_39557" data-name="Path 39557" class="cls-1" d="M49.477,323.773H48.091v-1.386H37V321H49.477Z" transform="translate(-37 -321)"/>
  </g>
  <g id="Group_37389" data-name="Group 37389" transform="translate(2.773 11.091)">
    <path id="Path_39558" data-name="Path 39558" class="cls-1" d="M42.545,334.7H37V325h1.386v8.318h4.159Z" transform="translate(-37 -325)"/>
  </g>
  <g id="Group_37391" data-name="Group 37391" transform="translate(5.908 13.447)">
    <rect id="Rectangle_2867" data-name="Rectangle 2867" class="cls-1" width="3" height="2" transform="translate(0.092 -0.447)"/>
  </g>
  <g id="Group_37392" data-name="Group 37392" transform="translate(5.908 16.823)">
    <rect id="Rectangle_2868" data-name="Rectangle 2868" class="cls-1" width="2" height="1" transform="translate(0.092 0.177)"/>
  </g>
  <g id="Group_37393" data-name="Group 37393" transform="translate(2.773 24.954)">
    <path id="Path_39559" data-name="Path 39559" class="cls-1" d="M48.091,354.7H37V345h5.545v1.386H38.386v6.932H46.7v-1.386h1.386Z" transform="translate(-37 -345)"/>
  </g>
  <g id="Group_37394" data-name="Group 37394" transform="translate(5.908 27.795)">
    <rect id="Rectangle_2869" data-name="Rectangle 2869" class="cls-1" width="3" height="1" transform="translate(0.092 0.205)"/>
  </g>
  <g id="Group_37395" data-name="Group 37395" transform="translate(5.908 30.328)">
    <rect id="Rectangle_2870" data-name="Rectangle 2870" class="cls-1" width="3" height="2" transform="translate(0.092 -0.328)"/>
  </g>
</svg>
