<svg id="אייקון-התאמות_החזרי_כספים_ממשקים_שליליים_" data-name="אייקון-התאמות החזרי כספים  (ממשקים שליליים)" xmlns="http://www.w3.org/2000/svg" width="38.686" height="50.559" viewBox="0 0 38.686 50.559">
  <defs>
    <style>
      .cls-1 {
        fill: #00d2d2;
      }
    </style>
  </defs>
  <g id="Group_36789" data-name="Group 36789" transform="translate(1)">
    <path id="Path_39217" data-name="Path 39217" class="cls-1" d="M1603.739,1438.884H1593.9a1.991,1.991,0,0,1-1.419-.589,2.014,2.014,0,0,1-.589-1.42,1.972,1.972,0,0,1,.576-1.406l.013-.013a1.993,1.993,0,0,1,1.419-.589h3.134a.683.683,0,1,0,0-1.366h-2.437l.013-.094v-14.477c0-6.388,6.6-10.848,7.741-11.571h7.847c1.139.723,7.741,5.183,7.741,11.571v1.42a.69.69,0,0,0,1.38,0v-1.42c0-5.478-4.259-9.616-6.777-11.571a.691.691,0,0,0-.054-1.38h-1.567l3.509-10.071a.7.7,0,0,0-.214-.763,11.135,11.135,0,0,0-8.357-2.3h-.013a.7.7,0,0,0-.549.8l.375,2.009c-3.535.294-6.522,3.281-6.535,3.281a.712.712,0,0,0-.053.924,17.025,17.025,0,0,1,2.652,6.12h-1.674a.681.681,0,0,0-.683.7.7.7,0,0,0,.63.683c-2.518,1.955-6.776,6.094-6.776,11.571v14.477a.527.527,0,0,0,.013.147,3.416,3.416,0,0,0-1.741.938v.013a3.308,3.308,0,0,0-.991,2.371,3.407,3.407,0,0,0,3.388,3.388h9.844a.69.69,0,0,0,0-1.38Zm-3.2-39.374a9.914,9.914,0,0,1,5.384-2.5l.83,4.581a.7.7,0,0,0,.8.549.687.687,0,0,0,.549-.8l-1.326-7.2a9.7,9.7,0,0,1,6.188,1.781l-3.5,10.071h-6.335A20.577,20.577,0,0,0,1600.538,1399.51Z" transform="translate(-1590.507 -1392.744)"/>
    <path id="Path_39218" data-name="Path 39218" class="cls-1" d="M1745.494,1645.682l.013-.067c0-1.125-1.365-2.062-3.549-2.665a33.3,33.3,0,0,0-15.013,0c-2.169.6-3.522,1.527-3.549,2.638v14.357c.04,1.112,1.38,2.036,3.549,2.625a29.421,29.421,0,0,0,7.5.857h.027a29.342,29.342,0,0,0,7.5-.857c2.129-.589,3.469-1.5,3.522-2.612v-.054l.013-.027-.013-.04Zm-1.446,13.633a.686.686,0,0,1-.683.683.677.677,0,0,1-.683-.683v-6.884a.677.677,0,0,1,.683-.683.686.686,0,0,1,.683.683Zm0-9.214a.686.686,0,0,1-.683.683.677.677,0,0,1-.683-.683v-.736a.677.677,0,0,1,.683-.683.686.686,0,0,1,.683.683Zm.081-4.473v.027c-.04.429-1,.9-2.531,1.313a32.159,32.159,0,0,1-14.29,0c-1.567-.429-2.531-.911-2.531-1.339v-.027c.027-.429.991-.91,2.531-1.325a32.155,32.155,0,0,1,14.29,0c1.541.415,2.491.9,2.531,1.325Z" transform="translate(-1707.822 -1612.868)"/>
    <path id="Path_39219" data-name="Path 39219" class="cls-1" d="M1690.378,1598.587a.911.911,0,0,1,.375-.817,2.057,2.057,0,0,1,.91-.348v1.9a9.006,9.006,0,0,1,1.072-.6v-1.313a4.53,4.53,0,0,1,.75.121q.3.08.523.16c.147.067.308.107.442.161a1.513,1.513,0,0,0,.509.067h.12c.188-.04.375-.08.549-.134a1.275,1.275,0,0,0,.362-.227,1.23,1.23,0,0,0,.4-.924,1.122,1.122,0,0,0-.362-.857,3.162,3.162,0,0,0-.924-.562,4.878,4.878,0,0,0-1.192-.308c-.415-.067-.817-.107-1.179-.134v-1.044a.525.525,0,0,0-.147-.389.559.559,0,0,0-.388-.147.528.528,0,0,0-.375.147.538.538,0,0,0-.161.389v1.044a4.982,4.982,0,0,0-3.12,1.112,3.577,3.577,0,0,0-1.138,2.813,3.348,3.348,0,0,0,.388,1.714,3.75,3.75,0,0,0,.977,1.125,5.4,5.4,0,0,0,1.058.59,3.58,3.58,0,0,1,1.339-2.424,2.544,2.544,0,0,1-.509-.335A.964.964,0,0,1,1690.378,1598.587Z" transform="translate(-1677.048 -1570.697)"/>
    <path id="Path_39220" data-name="Path 39220" class="cls-1" d="M1682.537,1534.773l-.709.536a.683.683,0,1,0,.83,1.085l.844-.656a.682.682,0,0,0-.964-.964Z" transform="translate(-1670.886 -1517.949)"/>
    <path id="Path_39221" data-name="Path 39221" class="cls-1" d="M1648.18,1553.024a.668.668,0,0,0-.027-.964.679.679,0,0,0-.964.04,11.29,11.29,0,0,0-2.277,3.482,8.521,8.521,0,0,0-.616,3.8.684.684,0,0,0,1.366-.094,7.109,7.109,0,0,1,.522-3.2A10.042,10.042,0,0,1,1648.18,1553.024Z" transform="translate(-1637.974 -1533.227)"/>
    <path id="Path_39222" data-name="Path 39222" class="cls-1" d="M1688.663,1698.6a5.235,5.235,0,0,0,.951.281V1696l-.348-.107a1.994,1.994,0,0,0-.629-.094,1.642,1.642,0,0,0-.656.121,1.271,1.271,0,0,0-.455.322,1.3,1.3,0,0,0-.254.428,1.035,1.035,0,0,0-.094.428,1.128,1.128,0,0,0,.428.884A3.67,3.67,0,0,0,1688.663,1698.6Z" transform="translate(-1676.847 -1661.279)"/>
  </g>
  <path id="Path_39580" data-name="Path 39580" class="cls-1" d="M514.129,339.323H513v-17.5A2.826,2.826,0,0,1,515.823,319h.565v1.129h-.565a1.7,1.7,0,0,0-1.694,1.694Z" transform="translate(-513 -310.355)"/>
  <path id="Path_39581" data-name="Path 39581" class="cls-1" d="M572.387,339.323h-1.129v-17.5a1.7,1.7,0,0,0-1.693-1.694H569V319h.565a2.826,2.826,0,0,1,2.823,2.823Z" transform="translate(-537.387 -310.355)"/>
</svg>
