<svg id="אייקון-דו_ח_סיכום_פעילות_חודשית_ללקוח" data-name="אייקון-דו”ח סיכום פעילות חודשית ללקוח" xmlns="http://www.w3.org/2000/svg" width="34" height="40.962" viewBox="0 0 34 40.962">
  <defs>
    <style>
      .cls-1 {
        fill: #00d3d3;
      }
    </style>
  </defs>
  <g id="Group_37455" data-name="Group 37455" transform="translate(0 0)">
    <g id="Group_37454" data-name="Group 37454">
      <g id="Group_37193" data-name="Group 37193" transform="translate(0 0)">
        <g id="Group_37174" data-name="Group 37174" transform="translate(20.075 29.604)">
          <rect id="Rectangle_2778" data-name="Rectangle 2778" class="cls-1" width="8.265" height="6.358"/>
        </g>
        <g id="Group_37175" data-name="Group 37175">
          <path id="Path_39445" data-name="Path 39445" class="cls-1" d="M264,157.962H230V126.91h1.308v29.73h31.385V118.321H237.846v7.267H230v-1.595L236.922,117H264Zm-32.422-33.694h4.96v-5.012Z" transform="translate(-230 -117)"/>
        </g>
        <g id="Group_37176" data-name="Group 37176" transform="translate(2.385 2.385)">
          <path id="Path_39446" data-name="Path 39446" class="cls-1" d="M263.231,141.269H234V127.558h1.329v12.519H261.9V122.192H240.643V121h22.587Z" transform="translate(-234 -121)"/>
        </g>
        <g id="Group_37177" data-name="Group 37177" transform="translate(8.098 13.035)">
          <rect id="Rectangle_2779" data-name="Rectangle 2779" class="cls-1" width="5.962" height="1.192" transform="translate(0 3.77) rotate(-53.142)"/>
        </g>
        <g id="Group_37178" data-name="Group 37178" transform="translate(14.965 12.803)">
          <rect id="Rectangle_2780" data-name="Rectangle 2780" class="cls-1" width="1.192" height="5.624" transform="matrix(0.53, -0.848, 0.848, 0.53, 0, 0.011)"/>
        </g>
        <g id="Group_37179" data-name="Group 37179" transform="translate(21.945 9.769)">
          <rect id="Rectangle_2781" data-name="Rectangle 2781" class="cls-1" width="6.138" height="1.192" transform="translate(0 4.366) rotate(-60.953)"/>
        </g>
        <g id="Group_37180" data-name="Group 37180" transform="translate(18.5 27.846)">
          <path id="Path_39447" data-name="Path 39447" class="cls-1" d="M257.192,165.346H256V157h13.115v1.192H257.192Z" transform="translate(-256 -157)"/>
        </g>
        <g id="Group_37181" data-name="Group 37181" transform="translate(18.5 30.231)">
          <path id="Path_39448" data-name="Path 39448" class="cls-1" d="M269.115,169.346H256v-1.192h11.923V161h1.192Z" transform="translate(-256 -161)"/>
        </g>
        <g id="Group_37182" data-name="Group 37182" transform="translate(14.3 36.962)">
          <rect id="Rectangle_2782" data-name="Rectangle 2782" class="cls-1" width="1" height="2"/>
        </g>
        <g id="Group_37183" data-name="Group 37183" transform="translate(2 36.962)">
          <rect id="Rectangle_2783" data-name="Rectangle 2783" class="cls-1" width="10" height="2"/>
        </g>
        <g id="Group_37184" data-name="Group 37184" transform="translate(2 34.962)">
          <rect id="Rectangle_2784" data-name="Rectangle 2784" class="cls-1" width="12" height="1"/>
        </g>
        <g id="Group_37185" data-name="Group 37185" transform="translate(2 32.183)">
          <rect id="Rectangle_2785" data-name="Rectangle 2785" class="cls-1" width="12" height="1"/>
        </g>
        <g id="Group_37186" data-name="Group 37186" transform="translate(2 28.849)">
          <rect id="Rectangle_2786" data-name="Rectangle 2786" class="cls-1" width="12" height="1"/>
        </g>
        <g id="Group_37187" data-name="Group 37187" transform="translate(5.315 16.426)">
          <path id="Path_39449" data-name="Path 39449" class="cls-1" d="M240.385,147.769a2.385,2.385,0,1,1,2.385-2.385A2.387,2.387,0,0,1,240.385,147.769Zm0-3.577a1.192,1.192,0,1,0,1.192,1.192A1.194,1.194,0,0,0,240.385,144.192Z" transform="translate(-238 -143)"/>
        </g>
        <g id="Group_37188" data-name="Group 37188" transform="translate(11.294 9.383)">
          <path id="Path_39450" data-name="Path 39450" class="cls-1" d="M249.385,135.769a2.385,2.385,0,1,1,2.385-2.385A2.387,2.387,0,0,1,249.385,135.769Zm0-3.577a1.192,1.192,0,1,0,1.192,1.192A1.194,1.194,0,0,0,249.385,132.192Z" transform="translate(-247 -132)"/>
        </g>
        <g id="Group_37189" data-name="Group 37189" transform="translate(19.266 15.415)">
          <path id="Path_39451" data-name="Path 39451" class="cls-1" d="M261.385,144.769a2.385,2.385,0,1,1,2.385-2.385A2.387,2.387,0,0,1,261.385,144.769Zm0-3.577a1.192,1.192,0,1,0,1.192,1.192A1.194,1.194,0,0,0,261.385,141.192Z" transform="translate(-259 -141)"/>
        </g>
        <g id="Group_37190" data-name="Group 37190" transform="translate(23.916 4.769)">
          <path id="Path_39452" data-name="Path 39452" class="cls-1" d="M268.385,129.769a2.385,2.385,0,1,1,2.385-2.385A2.387,2.387,0,0,1,268.385,129.769Zm0-3.577a1.192,1.192,0,1,0,1.192,1.192A1.194,1.194,0,0,0,268.385,126.192Z" transform="translate(-266 -126)"/>
        </g>
        <g id="Group_37191" data-name="Group 37191" transform="translate(5.682 26.627)">
          <rect id="Rectangle_2787" data-name="Rectangle 2787" class="cls-1" width="9" height="1"/>
        </g>
        <g id="Group_37192" data-name="Group 37192" transform="translate(2 26.627)">
          <rect id="Rectangle_2788" data-name="Rectangle 2788" class="cls-1" width="2" height="1"/>
        </g>
      </g>
    </g>
  </g>
</svg>
