<svg xmlns="http://www.w3.org/2000/svg" width="826.073" height="471.978" viewBox="0 0 826.073 471.978">
  <defs>
    <style>
      .cls-1 {
        fill: #f2f2f2;
      }

      .cls-2 {
        fill: #2f2e41;
      }

      .cls-3 {
        fill: #ffb8b8;
      }

      .cls-4 {
        fill: #c6c6c6;
      }

      .cls-5 {
        fill: #3f3d56;
      }

      .cls-6 {
        fill: #e6e6e6;
      }

      .cls-7 {
        fill: #fff;
      }

      .cls-8 {
        fill: #00cbcb;
      }
    </style>
  </defs>
  <g id="Group_37481" data-name="Group 37481" transform="translate(-64 -188)">
    <g id="Group_37475" data-name="Group 37475" transform="translate(64 188)">
      <path id="Path_39583" data-name="Path 39583" class="cls-1" d="M906.248,191.421l-253.589,109L689.2,401.189,715.317,473.2l6.565,18.111,58.437,22.18,2.113.8,246.218,71.139Z" transform="translate(-202.578 -113.451)"/>
      <path id="Path_39584" data-name="Path 39584" class="cls-2" d="M1023.377,744.352l-.052,2.612-.145,7.761L983.26,771.885,956.3,783.471l-1.138-3.8-1.208,4.748-61.043-23.161-.946-22.36v-.005l-.209-4.969,119.584-8.028,2.345,3.593.464.714Z" transform="translate(-412.06 -335.417)"/>
      <path id="Path_39585" data-name="Path 39585" class="cls-3" d="M981.445,349.18s-8.026,28.892-9.631,28.892,15.249,22.472,15.249,22.472l24.879,13.643,8.828-36.918s-8.026-20.064-6.42-30.5Z" transform="translate(-456.801 -177.801)"/>
      <circle id="Ellipse_424" data-name="Ellipse 424" class="cls-3" cx="29.695" cy="29.695" r="29.695" transform="translate(507.79 123.225)"/>
      <path id="Path_39586" data-name="Path 39586" class="cls-4" d="M962.542,410.49l-23.726-20.6-13.994,6.961-30.5,19.261s8.026,173.353,4.013,179.773c0,0,8.828,20.064,60.995,8.026s65.81-13.643,65.81-13.643l-11.236-105.938,13.644-66.612-45.829-32.047L967.358,410.49Z" transform="translate(-421.045 -195.773)"/>
      <path id="Path_39587" data-name="Path 39587" class="cls-3" d="M851.49,557.138s-12.038,37.72-3.21,41.733,16.051,2.408,16.051,2.408l13.644-32.905Z" transform="translate(-398.274 -275.006)"/>
      <path id="Path_39588" data-name="Path 39588" class="cls-3" d="M1144.642,545.2l7.223,33.708v68.218s-10.433,43.338-18.459,32.1-7.86-14.794-7.86-14.794l10.267-15.7-4.815-64.2L1118.2,553.9Z" transform="translate(-524.494 -269.491)"/>
      <path id="Path_39589" data-name="Path 39589" class="cls-2" d="M1016.026,247.323s-9.631-20.867-28.09-16.051-28.892,12.038-29.695,19.261.4,18.058.4,18.058,2.006-14.847,14.847-11.637,32.9.8,32.9.8l3.21,28.892s3.612-5.217,7.624-2.006S1028.867,253.744,1016.026,247.323Z" transform="translate(-450.452 -124.098)"/>
      <path id="Path_39590" data-name="Path 39590" class="cls-5" d="M1104.095,519.381l2.9,15.093,28.443-7.547L1130.217,513Z" transform="translate(-510.175 -237.043)"/>
      <path id="Path_39591" data-name="Path 39591" class="cls-5" d="M837.649,523.987l-4.535,14.685,28.651,6.714,1.94-14.752Z" transform="translate(-384.961 -242.121)"/>
      <path id="Path_39592" data-name="Path 39592" class="cls-4" d="M1107.059,442.257l18.459,1.605s20.867,56.982,18.459,58.587-31.3,11.236-35.313,8.828S1107.059,442.257,1107.059,442.257Z" transform="translate(-519.014 -221.922)"/>
      <path id="Path_39593" data-name="Path 39593" class="cls-4" d="M880.625,443.863l-6.42-1.605s-12.038,15.249-16.051,32.9-9.631,35.313-6.421,35.313,32.1,11.236,32.1,11.236Z" transform="translate(-400.925 -221.922)"/>
      <circle id="Ellipse_425" data-name="Ellipse 425" class="cls-5" cx="5.805" cy="5.805" r="5.805" transform="translate(538.775 214.422)"/>
      <path id="Path_39594" data-name="Path 39594" class="cls-6" d="M1035.185,563.9l-62.006,19.547-25.307-80.275q35.838-5.025,62.005-19.547A227.437,227.437,0,0,0,1035.185,563.9Z" transform="translate(-445.788 -241.035)"/>
      <path id="Path_39595" data-name="Path 39595" class="cls-7" d="M1024.394,580.083,962.388,599.63l-25.307-80.275q35.838-5.025,62.006-19.547A227.437,227.437,0,0,0,1024.394,580.083Z" transform="translate(-440.802 -248.515)"/>
      <path id="Path_39596" data-name="Path 39596" class="cls-3" d="M857.949,584.432s-9.631,17.656-7.223,23.274,22.472,8.828,24.879,8.828,31.3-6.42,31.3-6.42,44.141-20.867,31.3-31.3-36.918,14.446-36.918,14.446H882.026l-10.433-7.223Z" transform="translate(-400.721 -283.841)"/>
      <rect id="Rectangle_2910" data-name="Rectangle 2910" class="cls-1" width="104.895" height="46.89" transform="translate(0.538 72.53)"/>
      <rect id="Rectangle_2911" data-name="Rectangle 2911" class="cls-5" width="19" height="17" transform="translate(363 225)"/>
      <rect id="Rectangle_2912" data-name="Rectangle 2912" class="cls-5" width="18" height="17" transform="translate(327 225)"/>
      <rect id="Rectangle_2913" data-name="Rectangle 2913" class="cls-8" width="17" height="18" transform="translate(401 190)"/>
      <rect id="Rectangle_2914" data-name="Rectangle 2914" class="cls-5" width="19" height="17" transform="translate(382 208)"/>
      <rect id="Rectangle_2915" data-name="Rectangle 2915" class="cls-5" width="18" height="17" transform="translate(345 208)"/>
      <rect id="Rectangle_2916" data-name="Rectangle 2916" class="cls-8" width="18" height="15" transform="translate(129 240)"/>
      <rect id="Rectangle_2917" data-name="Rectangle 2917" class="cls-5" width="19" height="18" transform="translate(293 222)"/>
      <rect id="Rectangle_2918" data-name="Rectangle 2918" class="cls-5" width="19" height="18" transform="translate(183 222)"/>
      <rect id="Rectangle_2919" data-name="Rectangle 2919" class="cls-5" width="17" height="18" transform="translate(166 204)"/>
      <rect id="Rectangle_2920" data-name="Rectangle 2920" class="cls-5" width="19" height="18" transform="translate(256 222)"/>
      <rect id="Rectangle_2921" data-name="Rectangle 2921" class="cls-5" width="18" height="18" transform="translate(238 204)"/>
      <rect id="Rectangle_2922" data-name="Rectangle 2922" class="cls-5" width="18" height="18" transform="translate(220 222)"/>
      <rect id="Rectangle_2923" data-name="Rectangle 2923" class="cls-5" width="19" height="18" transform="translate(147 222)"/>
      <rect id="Rectangle_2924" data-name="Rectangle 2924" class="cls-8" width="18" height="18" transform="translate(275 204)"/>
      <path id="Path_39597" data-name="Path 39597" class="cls-5" d="M671.079,343.238l-9.5-10.187,10.187-9.5,9.5,10.187ZM663.092,333.1l8.04,8.62,8.62-8.04-8.04-8.62Z" transform="translate(-313.498 -167.07)"/>
      <path id="Path_39598" data-name="Path 39598" class="cls-5" d="M428.194,270.272H414.263V256.342h13.931ZM415.335,269.2h11.788V257.413H415.335Z" transform="translate(-199.221 -136.015)"/>
      <path id="Path_39599" data-name="Path 39599" class="cls-5" d="M909.194,220.272H895.263V206.342h13.931ZM896.335,219.2h11.787V207.413H896.335Z" transform="translate(-421.479 -112.912)"/>
      <path id="Path_39600" data-name="Path 39600" class="cls-5" d="M263.039,407.8l-.823-.8a42.057,42.057,0,0,0,8.435-14.756c2.8-8.424,4.167-21.728-5.217-37.268-9.6-15.9-10.032-28.815-8.7-36.85,1.445-8.742,5.132-13.642,5.288-13.847l.914.7a32.561,32.561,0,0,0-5.078,13.4c-1.28,7.83-.834,20.432,8.565,36,9.623,15.938,8.2,29.612,5.307,38.275A42.38,42.38,0,0,1,263.039,407.8Z" transform="translate(-126.174 -158.162)"/>
      <path id="Path_39601" data-name="Path 39601" class="cls-5" d="M533.039,339.8l-.823-.8a42.057,42.057,0,0,0,8.435-14.756c2.8-8.424,4.167-21.728-5.217-37.268-9.6-15.9-10.032-28.815-8.7-36.85,1.445-8.742,5.132-13.642,5.288-13.847l.914.7a32.559,32.559,0,0,0-5.078,13.4c-1.28,7.83-.834,20.432,8.565,36,9.623,15.938,8.2,29.612,5.307,38.275A42.379,42.379,0,0,1,533.039,339.8Z" transform="translate(-250.934 -126.741)"/>
      <path id="Path_39602" data-name="Path 39602" class="cls-5" d="M768.039,313.8l-.823-.8a42.056,42.056,0,0,0,8.435-14.756c2.8-8.424,4.167-21.728-5.217-37.269-9.6-15.9-10.032-28.815-8.7-36.85,1.445-8.742,5.132-13.642,5.288-13.847l.914.7a32.562,32.562,0,0,0-5.078,13.4c-1.28,7.83-.834,20.432,8.565,36,9.623,15.938,8.2,29.612,5.307,38.275A42.379,42.379,0,0,1,768.039,313.8Z" transform="translate(-359.522 -114.727)"/>
      <rect id="Rectangle_2925" data-name="Rectangle 2925" class="cls-5" width="50.625" height="1.151" transform="translate(27.673 87.33)"/>
      <rect id="Rectangle_2926" data-name="Rectangle 2926" class="cls-5" width="50.625" height="1.151" transform="translate(27.673 95.399)"/>
      <rect id="Rectangle_2927" data-name="Rectangle 2927" class="cls-5" width="50.625" height="1.151" transform="translate(27.673 103.468)"/>
      <rect id="Rectangle_2928" data-name="Rectangle 2928" class="cls-5" width="50.625" height="1.151" transform="translate(311.16 10.407)"/>
      <rect id="Rectangle_2929" data-name="Rectangle 2929" class="cls-5" width="50.625" height="1.151" transform="translate(311.16 18.476)"/>
      <rect id="Rectangle_2930" data-name="Rectangle 2930" class="cls-5" width="50.625" height="1.151" transform="translate(311.16 26.545)"/>
      <rect id="Rectangle_2931" data-name="Rectangle 2931" class="cls-5" width="50.625" height="1.151" transform="translate(430.041 188.998)"/>
      <rect id="Rectangle_2932" data-name="Rectangle 2932" class="cls-5" width="50.625" height="1.151" transform="translate(430.041 197.067)"/>
      <rect id="Rectangle_2933" data-name="Rectangle 2933" class="cls-5" width="50.625" height="1.151" transform="translate(430.041 205.136)"/>
      <rect id="Rectangle_2934" data-name="Rectangle 2934" class="cls-5" width="50.625" height="1.151" transform="translate(112.127 269.687)"/>
      <rect id="Rectangle_2935" data-name="Rectangle 2935" class="cls-5" width="50.625" height="1.151" transform="translate(112.127 277.756)"/>
      <rect id="Rectangle_2936" data-name="Rectangle 2936" class="cls-5" width="50.625" height="1.151" transform="translate(112.127 285.825)"/>
      <path id="Path_39603" data-name="Path 39603" class="cls-2" d="M152.36,107.245c8.747-19.62,21.929-32.526,39.182-38.36,12.81-4.332,27.623-4.741,44.03-1.217a117.746,117.746,0,0,1,34.4,13.362c56.956,33.056,92.169,33.349,111.68,27.775,21.393-6.112,29.222-20.453,29.3-20.6l.951.5c-.078.148-8.085,14.864-29.911,21.116-12.582,3.6-27.284,3.753-43.7.442-20.426-4.12-43.594-13.645-68.862-28.309a116.678,116.678,0,0,0-34.087-13.241c-26.909-5.78-62.979-3.712-82,38.963Z" transform="translate(-78.202 -47.739)"/>
      <ellipse id="Ellipse_426" data-name="Ellipse 426" class="cls-5" cx="19" cy="20" rx="19" ry="20" transform="translate(119 107)"/>
      <ellipse id="Ellipse_427" data-name="Ellipse 427" class="cls-5" cx="19.5" cy="19" rx="19.5" ry="19" transform="translate(265 75)"/>
      <ellipse id="Ellipse_428" data-name="Ellipse 428" class="cls-5" cx="19" cy="19.5" rx="19" ry="19.5" transform="translate(392 56)"/>
      <path id="Path_39604" data-name="Path 39604" class="cls-5" d="M134.457,202.979H14.5V141.655H134.457ZM15.576,201.9H133.381V142.731H15.576Z" transform="translate(-14.5 -83.022)"/>
      <rect id="Rectangle_2937" data-name="Rectangle 2937" class="cls-1" width="104.895" height="46.89" transform="translate(151.695 32.185)"/>
      <rect id="Rectangle_2938" data-name="Rectangle 2938" class="cls-5" width="50.625" height="1.151" transform="translate(178.83 46.986)"/>
      <rect id="Rectangle_2939" data-name="Rectangle 2939" class="cls-5" width="50.625" height="1.151" transform="translate(178.83 55.055)"/>
      <rect id="Rectangle_2940" data-name="Rectangle 2940" class="cls-5" width="50.625" height="1.151" transform="translate(177.216 61.51)"/>
      <path id="Path_39605" data-name="Path 39605" class="cls-5" d="M415.457,127.979H295.5V66.655H415.457ZM296.576,126.9H414.381V67.731H296.576Z" transform="translate(-144.343 -48.366)"/>
      <rect id="Rectangle_2941" data-name="Rectangle 2941" class="cls-1" width="104.895" height="46.89" transform="translate(422.271 13.896)"/>
      <rect id="Rectangle_2942" data-name="Rectangle 2942" class="cls-5" width="50.625" height="1.151" transform="translate(449.406 28.697)"/>
      <rect id="Rectangle_2943" data-name="Rectangle 2943" class="cls-5" width="50.625" height="1.151" transform="translate(449.406 36.765)"/>
      <rect id="Rectangle_2944" data-name="Rectangle 2944" class="cls-5" width="50.625" height="1.151" transform="translate(449.406 44.834)"/>
      <path id="Path_39606" data-name="Path 39606" class="cls-5" d="M918.457,93.979H798.5V32.655H918.457ZM799.576,92.9H917.381V33.731H799.576Z" transform="translate(-376.767 -32.655)"/>
    </g>
  </g>
</svg>
