<svg xmlns="http://www.w3.org/2000/svg" width="150.288" height="36.032" viewBox="0 0 150.288 36.032">
  <defs>
    <style>
      .cls-1 {
        fill: #0cc;
      }

      .cls-2 {
        fill: #010101;
      }

      .cls-3 {
        stroke: #000;
        stroke-miterlimit: 10;
        stroke-width: 0.25px;
      }
    </style>
  </defs>
  <g id="logo" transform="translate(-32 -14)">
    <path id="Path_1" data-name="Path 1" class="cls-1" d="M37.21.036V27.292a8.133,8.133,0,0,1-2.063,5.574,8.856,8.856,0,0,1-6.914,3.149c-5.5.036-11,0-16.506,0H.036C.036,35.907,0,35.8,0,35.69V33.916Q0,21.32,0,8.687A8.363,8.363,0,0,1,3.511,1.774,8.819,8.819,0,0,1,8.868,0H36.812C36.92,0,37.029.036,37.21.036ZM19.655,14.551C21.247,13.356,22.8,12.162,24.324,11a5.936,5.936,0,0,0-6.081-2.063,6,6,0,0,0-4.561,5.248,5.755,5.755,0,0,0,3.62,5.683,6.072,6.072,0,0,0,5.972-.833C22.08,17.555,20.885,16.071,19.655,14.551Zm4.6,6.3A8.632,8.632,0,0,1,20.6,22.406a8.4,8.4,0,0,1-4.018-.362,7.577,7.577,0,0,1-3.258-2.208,7.339,7.339,0,0,1-1.882-4.85A7.547,7.547,0,0,1,14.515,8.8c-.4-.507-.8-1.014-1.194-1.484a9.4,9.4,0,0,0-1.774,13.537,10.134,10.134,0,0,0,13.9,1.52c-.036-.072-.072-.109-.109-.181C24.976,21.754,24.614,21.32,24.252,20.849ZM8.361,23.13a14.163,14.163,0,0,0,19.51,2.208c-.4-.471-.8-.977-1.194-1.484a12.167,12.167,0,0,1-8.8,2.389,11.626,11.626,0,0,1-7.963-4.307A16.16,16.16,0,0,1,8.361,23.13Z" transform="translate(32 14)"/>
    <g id="Group_26" data-name="Group 26" transform="translate(75.906 14.145)">
      <path id="Path_2" data-name="Path 2" class="cls-2" d="M139.688,23.151c0,3.583-2.751,6.262-7.348,6.262H121.3V8.6h9.194c4.923,0,8.18,1.846,8.18,5.429a4.264,4.264,0,0,1-2.606,4.2C138.819,18.807,139.688,21.088,139.688,23.151Zm-12.271-6.624h2.57c1.629,0,2.57-.543,2.57-1.737,0-1.158-.941-1.737-2.57-1.737h-2.57Zm6.153,6.443c0-1.375-1.194-1.991-3.077-1.991h-3.077v3.982h3.077C132.34,24.925,133.571,24.309,133.571,22.97Z" transform="translate(-121.3 -5.632)"/>
      <path id="Path_3" data-name="Path 3" class="cls-2" d="M178.5,3.621a3.332,3.332,0,0,1,6.66,0,3.332,3.332,0,0,1-6.66,0Zm.253,4.706h6.117V24.181h-6.117Z" transform="translate(-157.796 -0.4)"/>
      <path id="Path_4" data-name="Path 4" class="cls-2" d="M219.561,32.057c0,3.258-2.353,5.61-8.4,5.61a13.734,13.734,0,0,1-7.963-2.244l1.52-4.2A14.6,14.6,0,0,0,210.258,33c1.448.145,3.149.145,3.149-.434,0-.471-.217-.543-2.9-.941-5.9-.8-6.8-3.149-6.8-4.887,0-3.366,2.642-5.936,8.579-5.936a16.748,16.748,0,0,1,6.262,1.339l-1.52,4.235a12.337,12.337,0,0,0-5.1-1.05c-1.448-.036-2.063.109-2.063.543,0,.543.76.615,2.136.76C216.52,27.207,219.561,27.967,219.561,32.057Z" transform="translate(-173.555 -13.416)"/>
      <path id="Path_5" data-name="Path 5" class="cls-2" d="M273.481,27.69h-7.167l-4.6-6.443V27.69H255.6V5.9h6.117V17.772l4.09-5.936h7.167l-6.117,7.529Z" transform="translate(-206.988 -3.909)"/>
      <path id="Path_6" data-name="Path 6" d="M308.5,3.621a3.332,3.332,0,0,1,6.66,0,3.3,3.3,0,0,1-3.33,3.221A3.254,3.254,0,0,1,308.5,3.621Zm.253,4.706h6.117V24.181h-6.117Z" transform="translate(-240.74 -0.4)"/>
      <path id="Path_7" data-name="Path 7" class="cls-2" d="M341.38,18.518V22.5c0,2.208.362,2.932,3.077,2.461v4.452a14.116,14.116,0,0,1-4.09.507c-3.873,0-5.068-1.882-5.1-5.357V18.518H333.2V13.559h2.063V8.6h6.117v4.959h3.077v4.959Z" transform="translate(-256.5 -5.632)"/>
      <path id="Path_8" data-name="Path 8" class="cls-2" d="M386.361,32.057c0,3.258-2.353,5.61-8.4,5.61A13.734,13.734,0,0,1,370,35.423l1.52-4.2A14.6,14.6,0,0,0,377.058,33c1.448.145,3.149.145,3.149-.434,0-.471-.217-.543-2.9-.941-5.9-.8-6.8-3.149-6.8-4.887,0-3.366,2.642-5.936,8.579-5.936a16.748,16.748,0,0,1,6.262,1.339l-1.52,4.235a12.338,12.338,0,0,0-5.1-1.05c-1.448-.036-2.063.109-2.063.543,0,.543.76.615,2.136.76C383.284,27.207,386.361,27.967,386.361,32.057Z" transform="translate(-279.979 -13.416)"/>
    </g>
    <g id="Group_27" data-name="Group 27" transform="translate(76.051 41.509)">
      <path id="Path_9" data-name="Path 9" class="cls-3" d="M121.736,76h2.244l.869,3.8.869-3.8h2.244v6.226H126.55V77.484l-1.086,4.742H124.2l-1.086-4.742v4.742H121.7V76Z" transform="translate(-121.7 -76)"/>
      <path id="Path_10" data-name="Path 10" class="cls-3" d="M143.256,81.893l-1.448-.181a2.5,2.5,0,0,1,.253-.688,1.248,1.248,0,0,1,.434-.434,3.3,3.3,0,0,1,.579-.217,2.839,2.839,0,0,1,.8-.072,8.7,8.7,0,0,1,1.122.072,1.4,1.4,0,0,1,.688.362,1.734,1.734,0,0,1,.434,1.194V83.92a2.07,2.07,0,0,0,.036.507,3.353,3.353,0,0,0,.145.471h-1.448a.63.63,0,0,1-.109-.253c0-.072-.036-.145-.036-.29a2.326,2.326,0,0,1-.615.471,2.421,2.421,0,0,1-.941.181,1.462,1.462,0,0,1-1.086-.362,1.2,1.2,0,0,1-.362-.9,1.269,1.269,0,0,1,.253-.833,1.769,1.769,0,0,1,.977-.507c.579-.145.941-.217,1.122-.29a1.707,1.707,0,0,0,.543-.217.629.629,0,0,0-.109-.434.579.579,0,0,0-.4-.145.918.918,0,0,0-.579.145A.868.868,0,0,0,143.256,81.893Zm1.3.941-.652.217c-.326.109-.507.181-.579.29a.65.65,0,0,0-.145.326.442.442,0,0,0,.109.326.553.553,0,0,0,.362.145.727.727,0,0,0,.471-.145,1.383,1.383,0,0,0,.326-.326,1.051,1.051,0,0,0,.109-.507Z" transform="translate(-134.461 -78.744)"/>
      <path id="Path_11" data-name="Path 11" class="cls-3" d="M156.8,76h1.556v3.221l1.158-1.484H161.4l-1.448,1.593,1.52,2.932h-1.737l-.8-1.81-.579.652v1.158H156.8V76Z" transform="translate(-144.095 -76)"/>
      <path id="Path_12" data-name="Path 12" class="cls-3" d="M175.533,83.123h-3.077a1.221,1.221,0,0,0,.217.615.7.7,0,0,0,.579.29.7.7,0,0,0,.434-.145.687.687,0,0,0,.253-.29l1.52.145a2.492,2.492,0,0,1-.832.977,3.442,3.442,0,0,1-2.679.036,2.02,2.02,0,0,1-.76-.8,2.479,2.479,0,0,1-.29-1.3,2.451,2.451,0,0,1,.615-1.7,2.128,2.128,0,0,1,1.665-.652,2.724,2.724,0,0,1,1.339.29,1.892,1.892,0,0,1,.76.833,3.351,3.351,0,0,1,.253,1.448Zm-1.556-.833a1.219,1.219,0,0,0-.253-.724.687.687,0,0,0-1.086.109,1.241,1.241,0,0,0-.181.615Z" transform="translate(-153.091 -78.744)"/>
      <path id="Path_13" data-name="Path 13" d="M194.1,76h1.7v6.226h-1.7Z" transform="translate(-167.894 -76)"/>
      <path id="Path_14" data-name="Path 14" d="M201.6,76h5.176v1.52h-1.737V82.19h-1.7V77.52H201.6Z" transform="translate(-172.679 -76)"/>
      <path id="Path_15" data-name="Path 15" d="M225,83.894l1.52-.145a.809.809,0,0,0,.253.434.776.776,0,0,0,.434.145.614.614,0,0,0,.471-.145.447.447,0,0,0,.145-.29.369.369,0,0,0-.181-.29,3.219,3.219,0,0,0-.652-.181,9.235,9.235,0,0,1-1.122-.29,1,1,0,0,1-.507-.434,1.305,1.305,0,0,1-.217-.724,1.245,1.245,0,0,1,.832-1.231,2.905,2.905,0,0,1,1.086-.145,3.69,3.69,0,0,1,1.05.109,1.286,1.286,0,0,1,.579.4,1.771,1.771,0,0,1,.362.688l-1.448.145a.7.7,0,0,0-.181-.326.776.776,0,0,0-.434-.145.481.481,0,0,0-.362.109.329.329,0,0,0-.109.253.273.273,0,0,0,.145.253,1.723,1.723,0,0,0,.652.145,4.33,4.33,0,0,1,1.122.253,1.317,1.317,0,0,1,.579.507,1.2,1.2,0,0,1,.181.724,1.52,1.52,0,0,1-.217.76,1.46,1.46,0,0,1-.652.579,2.884,2.884,0,0,1-1.231.217,2.462,2.462,0,0,1-1.556-.362A1.84,1.84,0,0,1,225,83.894Z" transform="translate(-187.609 -78.935)"/>
      <path id="Path_16" data-name="Path 16" d="M239.4,76h1.52v1.158H239.4Zm0,1.7h1.52V82.19H239.4Z" transform="translate(-196.797 -76)"/>
      <path id="Path_17" data-name="Path 17" d="M246.736,80.509h1.448v.652a1.81,1.81,0,0,1,.615-.579,1.683,1.683,0,0,1,.76-.181,1.471,1.471,0,0,1,.76.181,1.565,1.565,0,0,1,.471.579,3.213,3.213,0,0,1,.652-.615,1.435,1.435,0,0,1,.724-.145,1.263,1.263,0,0,1,1.013.434,1.975,1.975,0,0,1,.362,1.339V85h-1.52v-2.57a.821.821,0,0,0-.109-.471.454.454,0,0,0-.4-.217.516.516,0,0,0-.434.217,1.245,1.245,0,0,0-.181.724V85h-1.556V82.5a1.127,1.127,0,0,0-.036-.4.5.5,0,0,0-.181-.29.481.481,0,0,0-.29-.109.516.516,0,0,0-.434.217,1.245,1.245,0,0,0-.181.724v2.317H246.7V80.509Z" transform="translate(-201.454 -78.807)"/>
      <path id="Path_18" data-name="Path 18" d="M268.5,86.671V80.445h1.448V81.1a2.13,2.13,0,0,1,.543-.579,1.306,1.306,0,0,1,.724-.217,1.34,1.34,0,0,1,1.231.688,3.126,3.126,0,0,1,.434,1.7,2.514,2.514,0,0,1-.47,1.7,1.583,1.583,0,0,1-1.194.579,1.325,1.325,0,0,1-.652-.145,1.381,1.381,0,0,1-.507-.4v2.136H268.5v.109Zm1.556-3.945a1.23,1.23,0,0,0,.217.8.587.587,0,0,0,.507.253.473.473,0,0,0,.434-.253,1.576,1.576,0,0,0,.181-.833,1.522,1.522,0,0,0-.181-.8.528.528,0,0,0-.471-.253.632.632,0,0,0-.507.253A1.233,1.233,0,0,0,270.056,82.725Z" transform="translate(-215.364 -78.744)"/>
      <path id="Path_19" data-name="Path 19" d="M283.3,76h1.52v6.226H283.3Z" transform="translate(-224.807 -76)"/>
      <path id="Path_20" data-name="Path 20" d="M294.833,83.123h-3.077a1.221,1.221,0,0,0,.217.615.7.7,0,0,0,.579.29.7.7,0,0,0,.434-.145.687.687,0,0,0,.253-.29l1.52.145a2.493,2.493,0,0,1-.833.977,3.442,3.442,0,0,1-2.678.036,2.02,2.02,0,0,1-.76-.8,2.479,2.479,0,0,1-.29-1.3,2.451,2.451,0,0,1,.615-1.7,2.128,2.128,0,0,1,1.665-.652,2.725,2.725,0,0,1,1.339.29,1.892,1.892,0,0,1,.76.833,3.35,3.35,0,0,1,.253,1.448v.253Zm-1.593-.833a1.219,1.219,0,0,0-.253-.724.687.687,0,0,0-1.086.109,1.242,1.242,0,0,0-.181.615Z" transform="translate(-229.209 -78.744)"/>
    </g>
  </g>
</svg>
