<svg xmlns="http://www.w3.org/2000/svg" width="851" height="467.486" viewBox="0 0 851 467.486">
  <defs>
    <style>
      .cls-1 {
        fill: none;
        stroke: #3f3d56;
        stroke-linecap: round;
        stroke-width: 2px;
      }

      .cls-2 {
        fill: #c6c6c6;
      }

      .cls-3 {
        fill: #00caca;
      }

      .cls-4 {
        fill: #3f3d56;
      }

      .cls-5 {
        fill: #2f2e41;
      }

      .cls-6 {
        fill: #ffb8b8;
      }

      .cls-7 {
        fill: #f2f2f2;
      }

      .cls-8 {
        fill: #d0cde1;
      }
    </style>
  </defs>
  <g id="Group_37523" data-name="Group 37523" transform="translate(0.5 -132.435)">
    <g id="אילוסטרציה_אודותינו" data-name="אילוסטרציה אודותינו" transform="translate(-122 98.003)">
      <line id="Line_163" data-name="Line 163" class="cls-1" x2="849" transform="translate(122.5 476.497)"/>
      <path id="Path_39629" data-name="Path 39629" class="cls-2" d="M78.87,0A78.87,78.87,0,1,1,0,78.87,78.87,78.87,0,0,1,78.87,0Z" transform="translate(566.166 269.685)"/>
      <path id="Path_39612" data-name="Path 39612" class="cls-3" d="M841.545,556.391c0,55.569-60.814,35.216-135.832,35.216s-135.831,20.353-135.831-35.216S630.7,390.374,705.714,390.374,841.545,500.821,841.545,556.391Z" transform="translate(-195.587 -125.008)"/>
      <path id="Path_39613" data-name="Path 39613" class="cls-4" d="M971.332,609.357q-23.6-4-45.391-6.867l5.743-11.135c-1.937-.673-10.445,5.7-10.445,5.7l7.537-32.323c-9.74,1.175-14.692,34.179-14.692,34.179l-10.878-11.159,5.268,12.545a1004.758,1004.758,0,0,0-115.164-7.248l4.915-9.531c-1.937-.673-10.445,5.7-10.445,5.7l7.537-32.323c-9.74,1.175-14.692,34.179-14.692,34.179l-10.882-11.158,5.58,13.287c-12.632.253-24.162.792-34.615,1.507l1.735-3.363c-1.228-.427-5.1,1.982-7.767,3.8-.769.06-1.521.122-2.277.184l7.136-30.6c-7.945.958-12.7,23.095-14.188,31.22-1.045.1-2.082.2-3.1.3l-8.211-8.419a97.258,97.258,0,0,1,16.945-19.094c-12.9,3.836-19.665,10.265-23.2,16.258a260.334,260.334,0,0,1,15.047-89.948s-26.662,58.018-23.26,96.962l.364,6.188c-36.367-3.659-68.342-5.087-95.869-5.146l4.916-9.531c-1.937-.673-10.445,5.7-10.445,5.7l7.537-32.323c-9.74,1.175-14.692,34.179-14.692,34.179L580.5,579.924l5.58,13.287a646.953,646.953,0,0,0-66.2,4.5c4.972-14.847,21.862-28.968,21.862-28.968-12.9,3.836-19.665,10.265-23.2,16.258a260.332,260.332,0,0,1,15.047-89.948s-26.661,58.018-23.259,96.962l.407,6.915c-22.6,3.236-33.967,8.6-33.967,8.6l305.326,1.827c-5.325-.9-6.783,0-17.146,0ZM714.009,587.874l3.715,8.845c-2.993.32-5.871.65-8.6.988A44.826,44.826,0,0,1,714.009,587.874Z" transform="translate(-189.922 -131.376)"/>
      <path id="Path_39614" data-name="Path 39614" class="cls-4" d="M904.792,596.229c-.165-.27-4.054-6.763-5.4-20.247-1.237-12.371-.441-33.222,10.372-62.309,20.487-55.1-4.721-99.561-4.979-100l1.244-.721c.065.112,6.57,11.448,10.412,29.5a128.688,128.688,0,0,1-5.33,71.729c-20.452,55.008-5.247,81.049-5.091,81.305Z" transform="translate(-215.607 -126.381)"/>
      <circle id="Ellipse_441" data-name="Ellipse 441" class="cls-3" cx="9.343" cy="9.343" r="9.343" transform="translate(671.831 265.366)"/>
      <circle id="Ellipse_442" data-name="Ellipse 442" class="cls-4" cx="9.343" cy="9.343" r="9.343" transform="translate(701.297 299.862)"/>
      <circle id="Ellipse_443" data-name="Ellipse 443" class="cls-3" cx="9.343" cy="9.343" r="9.343" transform="translate(681.173 322.861)"/>
      <circle id="Ellipse_444" data-name="Ellipse 444" class="cls-3" cx="9.343" cy="9.343" r="9.343" transform="translate(705.608 342.266)"/>
      <circle id="Ellipse_445" data-name="Ellipse 445" class="cls-4" cx="9.343" cy="9.343" r="9.343" transform="translate(673.986 372.45)"/>
      <path id="Path_39615" data-name="Path 39615" class="cls-4" d="M911.083,605.861s-9.343-23,18.686-40.246Z" transform="translate(-216.255 -135.669)"/>
      <path id="Path_39616" data-name="Path 39616" class="cls-4" d="M896.538,606.452S892.286,582,859.375,582.206Z" transform="translate(-213.2 -136.679)"/>
      <path id="Path_39617" data-name="Path 39617" class="cls-5" d="M732.945,182.224C722.7,164.907,702.421,164.1,702.421,164.1s-19.757-2.527-32.432,23.847c-11.813,24.582-28.117,48.316-2.625,54.071l4.6-14.332,2.852,15.4a99.745,99.745,0,0,0,10.907.186c27.3-.881,53.3.258,52.463-9.539C737.078,220.71,742.806,198.886,732.945,182.224Z" transform="translate(-200.697 -111.238)"/>
      <path id="Path_39618" data-name="Path 39618" class="cls-6" d="M471.934,221.608l-2.156,38.809,63.245,6.469,2.155-40.247-21.56-13.654Z" transform="translate(-13.553 -10.863)"/>
      <path id="Path_39619" data-name="Path 39619" class="cls-5" d="M825.939,418.891c-1.9-18.334-77.192-26.656-95.287-28.394l-6.766-3.947-2.156-23s-66.838-5.749-71.868-6.468-9.343,8.624-9.343,10.78c0,1.558-.94,12.686-4.716,19.281-8.154,6.552-33.015,27.169-33.015,34.98,0,9.343,19.764,126.848,19.764,126.848l2.156,24.435L644.831,577l-1.437-76.181s7.187-43.84-2.875-56.057v-5.031s29.511-7.689,39.912-16.06c3.014-.648,11.483-2.243,16.16-.856.641.378,1.381.766,2.2,1.16a3.356,3.356,0,0,1,.3.3l.081-.124c13.455,6.3,47.97,14.241,62.085,11.982a49.4,49.4,0,0,1,31.622,5.749c-7.906,10.062-2.156,38.809-2.156,38.809l.719,61.807L801.5,554.722h13.655V520.944S828.095,439.732,825.939,418.891Z" transform="translate(-197.589 -122.98)"/>
      <circle id="Ellipse_446" data-name="Ellipse 446" class="cls-6" cx="23.717" cy="23.717" r="23.717" transform="translate(471.677 70.962)"/>
      <path id="Path_39620" data-name="Path 39620" class="cls-6" d="M682.31,224.7s3.593,15.811-1.437,17.248a68.018,68.018,0,0,0-11.5,5.031l-5.749,18.686V284.35l69.712,7.906,2.156-6.468v-9.343l-7.906-14.374-3.593-3.593s-15.811-17.248-12.218-33.778Z" transform="translate(-201.29 -114.929)"/>
      <path id="Path_39621" data-name="Path 39621" class="cls-6" d="M748.6,285.536s2.156,25.154,0,36.653-1.437,28.747-1.437,28.747l-15.811-2.875V309.253l3.593-20.842Z" transform="translate(-205.411 -118.63)"/>
      <circle id="Ellipse_447" data-name="Ellipse 447" class="cls-5" cx="14.66" cy="14.66" r="14.66" transform="translate(489.546 38.29)"/>
      <path id="Path_39622" data-name="Path 39622" class="cls-5" d="M690.755,159.14a14.66,14.66,0,0,1,13.115-14.577,14.66,14.66,0,1,0,0,29.156A14.661,14.661,0,0,1,690.755,159.14Z" transform="translate(-202.753 -110.048)"/>
      <path id="Path_39623" data-name="Path 39623" class="cls-5" d="M542.443,70.9,522.411,60.4,494.749,64.7l-5.723,25.278,14.246-.548,3.98-9.286v9.133l6.574-.253,3.816-14.785,2.385,15.739L543.4,89.5Z" transform="translate(-14.725 -1.58)"/>
      <rect id="Rectangle_3528" data-name="Rectangle 3528" class="cls-7" width="87.68" height="87.68" transform="translate(454.788 256.023)"/>
      <path id="Path_39624" data-name="Path 39624" class="cls-6" d="M639.375,272.527,626.439,325.71s-5.031,11.5,6.468,18.686,37.372,16.53,37.372,16.53,23,31.622,25.873,18.686S678.9,350.145,678.9,350.145l-35.216-22.279,13.655-37.372Z" transform="translate(-198.961 -117.838)"/>
      <path id="Path_39625" data-name="Path 39625" class="cls-6" d="M738.211,343.691s10.78-1.437,10.062,10.78-15.092,13.655-15.092,13.655-6.468,27.31-15.811,22.279,5.031-32.341,5.031-32.341l12.218-9.343Z" transform="translate(-204.368 -122.165)"/>
      <path id="Path_39626" data-name="Path 39626" class="cls-5" d="M664.289,266.017l11.5-23.717-23,7.906s-12.936,6.468-13.655,21.561,16.53,23,16.53,23,2.875,21.561,1.437,24.435,0,14.374,0,14.374,27.669-7.546,41.324,1.8,24.795,3.953,24.795,3.953-.719-17.967,5.031-20.842,10.78-16.53,5.749-25.154c0,0,11.5,1.437,10.78-9.343s-6.468-20.123-15.811-24.435-10.376-5-10.376-5l13.25,24.406v6.468s-23.457-14.973-46.665-16.22a30.911,30.911,0,0,0-20.891,6.877h0Z" transform="translate(-199.799 -115.999)"/>
      <path id="Path_39627" data-name="Path 39627" class="cls-8" d="M644.41,561.726s10.2,4.8,13.2,6.6,15-1.8,12.6,9-12.6,21-12.6,21-4.8,5.4-4.8,9-12,31.195-26.4,29.995-12-15.6-12-15.6l3-15.6s6-26.4,7.2-25.8,4.2,4.8,4.2,4.8S643.811,579.122,644.41,561.726Z" transform="translate(-198.288 -135.433)"/>
      <path id="Path_39628" data-name="Path 39628" class="cls-8" d="M803.928,542.595s-10.2,4.8-13.2,6.6-15-1.8-12.6,9,12.6,21,12.6,21,4.8,5.4,4.8,9,12,31.195,26.4,29.995,12-15.6,12-15.6l-3-15.6s-6-26.4-7.2-25.8-4.2,4.8-4.2,4.8S804.528,559.991,803.928,542.595Z" transform="translate(-208.238 -134.269)"/>
    </g>
  </g>
</svg>
